<?xml version="1.0" standalone="no"?>
<!DOCTYPE svg PUBLIC "-//W3C//DTD SVG 20010904//EN"
 "http://www.w3.org/TR/2001/REC-SVG-20010904/DTD/svg10.dtd">
<svg version="1.0" xmlns="http://www.w3.org/2000/svg"
 width="1739.000000pt" height="1739.000000pt" viewBox="0 0 1739.000000 1739.000000"
 preserveAspectRatio="xMidYMid meet">
<metadata>
Created by potrace 1.11, written by Peter Selinger 2001-2013
</metadata>
<g transform="translate(0.000000,1739.000000) scale(0.100000,-0.100000)"
fill="#000000" stroke="none">
<path d="M1139 17376 c-2 -2 -26 -6 -54 -10 -27 -3 -60 -8 -72 -11 -13 -3 -33
-7 -45 -10 -70 -15 -174 -53 -253 -93 -349 -173 -588 -484 -672 -873 -17 -81
-18 -378 -18 -7664 0 -4169 3 -7602 7 -7630 4 -27 9 -59 12 -70 57 -255 168
-460 346 -635 186 -184 417 -300 681 -345 72 -12 1188 -14 7639 -14 7328 0
7558 1 7651 19 201 39 365 110 524 228 74 55 209 192 250 252 16 25 32 47 35
50 11 10 53 82 82 142 56 116 96 241 115 355 10 61 11 15157 1 15238 -5 33 -9
67 -11 75 -15 68 -23 95 -48 169 -34 96 -85 200 -142 285 -54 80 -60 87 -152
180 -169 171 -366 279 -630 343 -66 17 -519 18 -7656 20 -4172 2 -7588 1
-7590 -1z"/>
</g>
</svg>
